<?xml version="1.0" encoding="utf-8"?>
<!-- Generator: Adobe Illustrator 19.1.0, SVG Export Plug-In . SVG Version: 6.00 Build 0)  -->
<svg version="1.1" id="Layer_1" xmlns="http://www.w3.org/2000/svg" xmlns:xlink="http://www.w3.org/1999/xlink" x="0px" y="0px"
	 viewBox="0 0 60 60" style="enable-background:new 0 0 60 60;" xml:space="preserve">
<style type="text/css">
	.st0{fill:#1D160B;}
	.st1{fill:#FFFFFF;}
</style>
<g>
	<path class="st0" d="M30,60c16.6,0,30-13.4,30-30C60,13.4,46.6,0,30,0S0,13.4,0,30C0,46.6,13.4,60,30,60"/>
	<path class="st1" d="M49.5,21c-0.3,0.2-0.6,0.5-0.9,0.9c-0.5,0.5-0.9,1.2-1.4,2c-0.5,0.8-0.9,1.5-1.2,2.3L37.2,45l-6.7-15.5
		L22.9,45l-8.6-19c-0.3-0.8-0.7-1.5-1.2-2.3c-0.5-0.8-0.9-1.4-1.3-1.9c-0.3-0.4-0.7-0.7-1.1-0.9c-0.4-0.2-0.9-0.4-1.6-0.6V20h13.1
		v0.4c-0.5,0.2-0.9,0.5-1.1,0.7c-0.2,0.3-0.3,0.6-0.3,1.1c0,0.4,0.1,0.8,0.3,1.3l5.6,12.8l3.7-7.3L28.2,24c-0.6-1.4-1.2-2.4-1.8-3
		c-0.2-0.2-0.4-0.3-0.7-0.4c-0.3-0.1-0.6-0.2-1.1-0.3V20h13v0.4c-1.3,0.2-1.9,0.9-1.9,2.1c0,0.3,0.1,0.7,0.2,1.2
		c0.1,0.5,0.3,1,0.5,1.5L41,35.8l0.9-1.8c0.9-1.9,1.6-3.6,2.1-5.2c0.5-1.6,0.7-3,0.7-4.2c0-1.4-0.3-2.4-0.9-3.2
		c-0.2-0.3-0.5-0.5-0.7-0.6c-0.3-0.1-0.7-0.3-1.2-0.4V20h9v0.4C50.3,20.6,49.8,20.8,49.5,21"/>
</g>
</svg>
